<?xml version="1.0" standalone="no"?>
<!DOCTYPE svg PUBLIC "-//W3C//DTD SVG 20010904//EN"
 "http://www.w3.org/TR/2001/REC-SVG-20010904/DTD/svg10.dtd">
<svg version="1.0" xmlns="http://www.w3.org/2000/svg"
 width="512.000000pt" height="512.000000pt" viewBox="0 0 512.000000 512.000000"
 preserveAspectRatio="xMidYMid meet">
<metadata>
Created by potrace 1.14, written by Peter Selinger 2001-2017
</metadata>
<g transform="translate(0.000000,512.000000) scale(0.100000,-0.100000)"
fill="#000000" stroke="none">
<path d="M3140 4905 c-290 -42 -531 -140 -745 -305 -303 -232 -506 -553 -585
-925 -27 -128 -37 -364 -21 -500 33 -281 154 -575 325 -786 l54 -67 -74 -73
c-41 -41 -74 -79 -74 -84 0 -6 28 -39 63 -73 l63 -62 78 79 79 79 53 -43 c192
-157 467 -285 684 -319 19 -3 46 -8 60 -11 56 -14 338 -17 425 -6 776 100
1350 730 1370 1506 10 367 -100 707 -324 1000 -58 77 -199 218 -276 276 -216
165 -478 275 -745 314 -85 12 -325 12 -410 0z m415 -190 c370 -64 682 -258
903 -563 109 -151 202 -370 229 -537 3 -16 8 -50 13 -74 4 -24 9 -103 9 -175
7 -646 -449 -1216 -1081 -1352 -255 -54 -548 -32 -784 61 -185 73 -323 164
-470 310 -163 160 -269 330 -338 536 -95 282 -94 601 1 879 163 478 580 831
1082 915 108 18 328 18 436 0z"/>
<path d="M3226 4538 c-526 -53 -949 -438 -1053 -957 -21 -105 -24 -287 -7
-396 47 -298 190 -549 428 -747 61 -51 94 -73 181 -123 l50 -29 -81 81 c-139
138 -238 311 -286 498 -27 103 -33 351 -11 447 12 55 62 218 66 218 1 0 1 -49
-1 -108 -4 -127 12 -204 64 -302 139 -263 448 -355 771 -231 401 155 653 618
528 974 -32 93 -67 149 -135 217 l-58 58 71 -19 c92 -25 243 -97 324 -155 220
-157 380 -409 424 -666 6 -38 13 -68 16 -68 3 0 3 73 0 163 -6 176 -22 259
-78 402 -190 485 -698 796 -1213 743z"/>
<path d="M1092 1467 l-672 -672 173 -173 172 -172 675 675 675 675 -170 170
c-93 93 -172 170 -175 170 -3 0 -308 -303 -678 -673z"/>
<path d="M318 472 l-78 -78 68 -67 67 -67 80 80 79 81 -64 64 c-36 36 -67 65
-70 65 -3 -1 -40 -35 -82 -78z"/>
</g>
</svg>
