<?xml version="1.0" encoding="UTF-8" standalone="no"?>
<svg
   xmlns:dc="http://purl.org/dc/elements/1.1/"
   xmlns:cc="http://creativecommons.org/ns#"
   xmlns:rdf="http://www.w3.org/1999/02/22-rdf-syntax-ns#"
   xmlns:svg="http://www.w3.org/2000/svg"
   xmlns="http://www.w3.org/2000/svg"
   xmlns:sodipodi="http://sodipodi.sourceforge.net/DTD/sodipodi-0.dtd"
   xmlns:inkscape="http://www.inkscape.org/namespaces/inkscape"
   width="52.804508mm"
   height="111.94577mm"
   viewBox="0 0 52.804508 111.94577"
   version="1.1"
   id="svg5"
   fill="#319795"
   inkscape:version="1.0.2 (e86c8708, 2021-01-15)"
   sodipodi:docname="1663073679arrow-hand-dawn.svg">
  <title
     id="title9">Hand drawn arrow (Seta desenhada à mão)</title>
  <sodipodi:namedview
     id="namedview7"
     pagecolor="#505050"
     bordercolor="#ffffff"
     borderopacity="1"
     inkscape:pageshadow="0"
     inkscape:pageopacity="0"
     inkscape:pagecheckerboard="1"
     inkscape:document-units="mm"
     showgrid="false"
     fit-margin-top="0"
     fit-margin-left="0"
     fit-margin-right="0"
     fit-margin-bottom="0"
     inkscape:zoom="0.74029882"
     inkscape:cx="666.6227"
     inkscape:cy="453.87078"
     inkscape:window-width="1920"
     inkscape:window-height="1027"
     inkscape:window-x="0"
     inkscape:window-y="25"
     inkscape:window-maximized="1"
     inkscape:current-layer="layer1"
     inkscape:document-rotation="0" />
  <defs
     id="defs2" />
  <g
     inkscape:label="Camada 1"
     inkscape:groupmode="layer"
     id="layer1"
     transform="translate(-0.72768985,-0.17310625)">
    <path
       style="fill:#319795;stroke:none;stroke-width:0.215072;fill-opacity:1"
       d="m 4.9024998,3.6343535 c 2.64784,-0.513484 5.2758702,-0.961974 7.9576602,-1.254751 0.82663,-0.09024 2.29261,-0.257381 1.80173,-1.51015103 -0.54498,-1.390776 -4.10545,-0.273172 -5.2428802,-0.246105 -2.0526,0.04883 -3.96425,0.155936 -6.02201,0.01924 -0.80171,-0.05326 -1.70697,-0.04986 -2.23602,0.65782903 -0.68376001,0.91463 -0.35690001,2.756851 -0.34402001,3.839437 0.0367,3.086842 1.02631001,6.7776695 3.24534001,9.0136005 0.81936,0.825618 2.60884,2.277053 3.69156,1.001504 0.77729,-0.91569 -0.01,-2.158548 -0.20296,-3.132803 -0.58072,-2.9247195 -1.57556,-5.6067095 -2.6484,-8.3878055 m 5.8388002,2.16614 c -1.4612902,0.761613 0.0369,1.982835 0.8286,2.405129 3.50796,1.8710605 6.87644,4.0137795 9.89314,6.6124725 11.74508,10.11763 20.01439,24.505943 24.27281,39.358167 4.52641,15.78736 5.58047,34.43129 -7.49741,46.651263 -4.59243,4.29132 -10.65101,7.52365 -16.99047,7.95766 -1.25219,0.0858 -5.9856,-0.91685 -6.11959,0.87986 -0.10188,1.36614 2.37945,1.67993 3.32365,1.90748 3.64565,0.87813 7.79701,0.65102 11.39882,-0.34735 3.92915,-1.08913 7.58344,-3.11875 10.7536,-5.64757 C 61.30878,89.061577 53.41758,58.528457 42.68871,38.691077 40.69005,34.99528 38.50707,31.420569 36.15891,27.937479 31.34689,20.799112 25.2382,14.611707 18.23696,9.6263395 16.52615,8.4081285 14.70817,7.3561685 12.86016,6.3640635 12.25101,6.0370465 11.45899,5.4264575 10.7413,5.8004885 Z"
       id="path39" />
  </g>
  <metadata
     id="metadata7">
    <rdf:RDF>
      <cc:Work
         rdf:about="">
        <dc:title>Hand drawn arrow (Seta desenhada à mão)</dc:title>
        <dc:date>2022-09-13</dc:date>
        <dc:creator>
          <cc:Agent>
            <dc:title>Cláudio Souza Jr. &lt;claudiosouzajunior@gmail.com&gt;</dc:title>
          </cc:Agent>
        </dc:creator>
        <dc:rights>
          <cc:Agent>
            <dc:title>Public Domain</dc:title>
          </cc:Agent>
        </dc:rights>
        <dc:publisher>
          <cc:Agent>
            <dc:title>Cláudio Souza Jr. &lt;claudiosouzajunior@gmail.com&gt;</dc:title>
          </cc:Agent>
        </dc:publisher>
        <dc:source>claudiosouzajunior@gmail.com</dc:source>
        <dc:subject>
          <rdf:Bag>
            <rdf:li>hand drawn</rdf:li>
            <rdf:li>arrow</rdf:li>
            <rdf:li>desenhado à mão</rdf:li>
            <rdf:li>seta</rdf:li>
          </rdf:Bag>
        </dc:subject>
        <dc:description>Hand drawn arrow 
Seta desenhada à mão
flecha dibujada a mano</dc:description>
        <cc:license
           rdf:resource="http://creativecommons.org/publicdomain/zero/1.0/" />
        <dc:format>image/svg+xml</dc:format>
        <dc:type
           rdf:resource="http://purl.org/dc/dcmitype/StillImage" />
      </cc:Work>
      <cc:License
         rdf:about="http://creativecommons.org/publicdomain/zero/1.0/">
        <cc:permits
           rdf:resource="http://creativecommons.org/ns#Reproduction" />
        <cc:permits
           rdf:resource="http://creativecommons.org/ns#Distribution" />
        <cc:permits
           rdf:resource="http://creativecommons.org/ns#DerivativeWorks" />
      </cc:License>
    </rdf:RDF>
  </metadata>
</svg>
